<svg xmlns="http://www.w3.org/2000/svg" width="480" height="165" class="">
    <defs>
        <style/>
    </defs>
    <style>@keyframes animation-gauge{0%{stroke-dasharray:0 329}}@keyframes animation-rainbow{0%,to{color:#7f00ff;fill:#7f00ff}14%{color:#a933ff;fill:#a933ff}29%{color:#007fff;fill:#007fff}43%{color:#00ff7f;fill:#00ff7f}57%{color:#ff0;fill:#ff0}71%{color:#ff7f00;fill:#ff7f00}86%{color:red;fill:red}}svg{font-family:-apple-system,BlinkMacSystemFont,Segoe UI,Helvetica,Arial,sans-serif,Apple Color Emoji,Segoe UI Emoji;font-size:14px;color:#777}h1,h2,h3{margin:8px 0 2px;padding:0;color:#0366d6}h1{font-size:20px;font-weight:700}h2,h3{font-weight:400}h1 svg,h2 svg,h3 svg{fill:currentColor}h2{font-size:16px}h3{font-size:14px}section&gt;.field{margin-left:5px;margin-right:5px}.field{display:flex;align-items:center;margin-bottom:2px;white-space:nowrap}.field svg{margin:0 8px;fill:#959da5;flex-shrink:0}.row{display:flex;flex-wrap:wrap}.row section{flex:1 1 0}.column{display:flex;flex-direction:column;align-items:center}#metrics-end,.fill-width{width:100%}svg.bar{margin:4px 0}.field.language{margin:0 8px;flex-grow:0}.field.language.details,.field.language.details small{display:flex;justify-content:space-between}.field.language.details small{color:#666;text-align:right}.field.language.details small&gt;*,.field.language.details&gt;*{flex:1 1 0}.field.language.details small&gt;:not(:last-child){margin-right:6px}footer{margin-top:8px;font-size:10px;font-style:italic;color:#666;text-align:right;display:flex;flex-direction:column;justify-content:flex-end;padding:0 4px}:root{--color-calendar-graph-day-bg:#ebedf0;--color-calendar-graph-day-border:rgba(27,31,35,0.06);--color-calendar-graph-day-L1-bg:#9be9a8;--color-calendar-graph-day-L2-bg:#40c463;--color-calendar-graph-day-L3-bg:#30a14e;--color-calendar-graph-day-L4-bg:#216e39;--color-calendar-halloween-graph-day-L1-bg:#ffee4a;--color-calendar-halloween-graph-day-L2-bg:#ffc501;--color-calendar-halloween-graph-day-L3-bg:#fe9600;--color-calendar-halloween-graph-day-L4-bg:#03001c;--color-calendar-winter-graph-day-L1-bg:#0a3069;--color-calendar-winter-graph-day-L2-bg:#0969da;--color-calendar-winter-graph-day-L3-bg:#54aeff;--color-calendar-winter-graph-day-L4-bg:#b6e3ff;--color-calendar-graph-day-L4-border:rgba(27,31,35,0.06);--color-calendar-graph-day-L3-border:rgba(27,31,35,0.06);--color-calendar-graph-day-L2-border:rgba(27,31,35,0.06);--color-calendar-graph-day-L1-border:rgba(27,31,35,0.06)}</style>
    <style>svg { background: linear-gradient(135deg, #141321 0%, #1d1233 55%, #141321 100%); border-radius: 14px; color: #a9fef7 !important; }
h1 { color: #fe428e !important; font-size: 24px !important; text-shadow: 0 0 12px rgba(254, 66, 142, 0.55); }
h2 { color: #fe428e !important; font-size: 15px !important; text-transform: uppercase; letter-spacing: 2.5px; text-shadow: 0 0 10px rgba(254, 66, 142, 0.5); }
h3 { color: #f8d847 !important; }
.field { font-size: 14px; }
.field svg { color: #f8d847 !important; fill: #f8d847 !important; }
h1 svg, h2 svg { color: #fe428e !important; fill: #fe428e !important; }
footer { display: none !important; }
[fill="#ebedf0"] { fill: #201c34; }
[fill="#9be9a8"] { fill: #6d2a52; }
[fill="#40c463"] { fill: #a03374; }
[fill="#30a14e"] { fill: #d43f96; }
[fill="#216e39"] { fill: #ff58b0; }</style>
    <foreignObject x="0" y="0" width="100%" height="100%">
        <div xmlns="http://www.w3.org/1999/xhtml" xmlns:xlink="http://www.w3.org/1999/xlink" class="items-wrapper">
            <section>
                <h2 class="field">
                    <svg xmlns="http://www.w3.org/2000/svg" viewBox="0 0 16 16" width="16" height="16">
                        <path fill-rule="evenodd" d="M1.5 2.75a.25.25 0 01.25-.25h12.5a.25.25 0 01.25.25v8.5a.25.25 0 01-.25.25h-6.5a.75.75 0 00-.53.22L4.5 14.44v-2.19a.75.75 0 00-.75-.75h-2a.25.25 0 01-.25-.25v-8.5zM1.75 1A1.75 1.75 0 000 2.75v8.5C0 12.216.784 13 1.75 13H3v1.543a1.457 1.457 0 002.487 1.03L8.061 13h6.189A1.75 1.75 0 0016 11.25v-8.5A1.75 1.75 0 0014.25 1H1.75zm5.03 3.47a.75.75 0 010 1.06L5.31 7l1.47 1.47a.75.75 0 01-1.06 1.06l-2-2a.75.75 0 010-1.06l2-2a.75.75 0 011.06 0zm2.44 0a.75.75 0 000 1.06L10.69 7 9.22 8.47a.75.75 0 001.06 1.06l2-2a.75.75 0 000-1.06l-2-2a.75.75 0 00-1.06 0z"/>
                    </svg>
                    16 Languages
                </h2>
            </section>
            <section class="column">
                <h3 class="field">Most used languages</h3>
                <svg class="bar" xmlns="http://www.w3.org/2000/svg" width="460" height="8">
                    <mask id="languages-bar">
                        <rect x="0" y="0" width="460" height="8" fill="white" rx="5"/>
                    </mask>
                    <rect mask="url(#languages-bar)" x="0" y="0" width="0" height="8" fill="#d1d5da"/>
                    <rect mask="url(#languages-bar)" x="0" y="0" width="275.9454258215319" height="8" fill="#DA5B0B"/>
                    <rect mask="url(#languages-bar)" x="275.9454258215319" y="0" width="51.54451888053597" height="8" fill="#f34b7d"/>
                    <rect mask="url(#languages-bar)" x="327.4899447020679" y="0" width="36.00350719679235" height="8" fill="#3572A5"/>
                    <rect mask="url(#languages-bar)" x="363.49345189886026" y="0" width="28.19934593466882" height="8" fill="#b07219"/>
                    <rect mask="url(#languages-bar)" x="391.6927978335291" y="0" width="26.68451614090356" height="8" fill="#e34c26"/>
                    <rect mask="url(#languages-bar)" x="418.37731397443264" y="0" width="18.318311599792473" height="8" fill="#663399"/>
                    <rect mask="url(#languages-bar)" x="436.6956255742251" y="0" width="15.119994244240662" height="8" fill="#f1e05a"/>
                    <rect mask="url(#languages-bar)" x="451.8156198184658" y="0" width="8.184380181534234" height="8" fill="#555555"/>
                </svg>
                <div class="row fill-width">
                    <section>
                        <div class="field language details">
                            <div class="field">
                                <svg xmlns="http://www.w3.org/2000/svg" viewBox="0 0 16 16" width="16" height="16">
                                    <path fill="#DA5B0B" fill-rule="evenodd" d="M8 4a4 4 0 100 8 4 4 0 000-8z"/>
                                </svg>
                                Jupyter Notebook
                            </div>
                            <small>
                                <div>59.99%</div>
                            </small>
                        </div>
                        <div class="field language details">
                            <div class="field">
                                <svg xmlns="http://www.w3.org/2000/svg" viewBox="0 0 16 16" width="16" height="16">
                                    <path fill="#3572A5" fill-rule="evenodd" d="M8 4a4 4 0 100 8 4 4 0 000-8z"/>
                                </svg>
                                Python
                            </div>
                            <small>
                                <div>7.83%</div>
                            </small>
                        </div>
                        <div class="field language details">
                            <div class="field">
                                <svg xmlns="http://www.w3.org/2000/svg" viewBox="0 0 16 16" width="16" height="16">
                                    <path fill="#e34c26" fill-rule="evenodd" d="M8 4a4 4 0 100 8 4 4 0 000-8z"/>
                                </svg>
                                HTML
                            </div>
                            <small>
                                <div>5.8%</div>
                            </small>
                        </div>
                        <div class="field language details">
                            <div class="field">
                                <svg xmlns="http://www.w3.org/2000/svg" viewBox="0 0 16 16" width="16" height="16">
                                    <path fill="#f1e05a" fill-rule="evenodd" d="M8 4a4 4 0 100 8 4 4 0 000-8z"/>
                                </svg>
                                JavaScript
                            </div>
                            <small>
                                <div>3.29%</div>
                            </small>
                        </div>
                    </section>
                    <section>
                        <div class="field language details">
                            <div class="field">
                                <svg xmlns="http://www.w3.org/2000/svg" viewBox="0 0 16 16" width="16" height="16">
                                    <path fill="#f34b7d" fill-rule="evenodd" d="M8 4a4 4 0 100 8 4 4 0 000-8z"/>
                                </svg>
                                C++
                            </div>
                            <small>
                                <div>11.21%</div>
                            </small>
                        </div>
                        <div class="field language details">
                            <div class="field">
                                <svg xmlns="http://www.w3.org/2000/svg" viewBox="0 0 16 16" width="16" height="16">
                                    <path fill="#b07219" fill-rule="evenodd" d="M8 4a4 4 0 100 8 4 4 0 000-8z"/>
                                </svg>
                                Java
                            </div>
                            <small>
                                <div>6.13%</div>
                            </small>
                        </div>
                        <div class="field language details">
                            <div class="field">
                                <svg xmlns="http://www.w3.org/2000/svg" viewBox="0 0 16 16" width="16" height="16">
                                    <path fill="#663399" fill-rule="evenodd" d="M8 4a4 4 0 100 8 4 4 0 000-8z"/>
                                </svg>
                                CSS
                            </div>
                            <small>
                                <div>3.98%</div>
                            </small>
                        </div>
                        <div class="field language details">
                            <div class="field">
                                <svg xmlns="http://www.w3.org/2000/svg" viewBox="0 0 16 16" width="16" height="16">
                                    <path fill="#555555" fill-rule="evenodd" d="M8 4a4 4 0 100 8 4 4 0 000-8z"/>
                                </svg>
                                C
                            </div>
                            <small>
                                <div>1.78%</div>
                            </small>
                        </div>
                    </section>
                </div>
            </section>
        </div>
        <div xmlns="http://www.w3.org/1999/xhtml" id="metrics-end"></div>
    </foreignObject>
</svg>